<svg xmlns="http://www.w3.org/2000/svg" viewBox="0 0 200 240">
  <path d="M100 8 L172 32 L172 108 C172 166 138 204 100 228 C62 204 28 166 28 108 L28 32 Z"
        fill="#1e3f7a" stroke="#c9a227" stroke-width="6"/>
  <g fill="#f0c419">
    <g transform="translate(72,95)">
      <rect x="-18" y="0" width="36" height="10" rx="2"/>
      <polygon points="-18,0 -12,-14 -6,0"/>
      <polygon points="-6,0 0,-18 6,0"/>
      <polygon points="6,0 12,-14 18,0"/>
      <circle cx="-12" cy="-14" r="2.5"/>
      <circle cx="0" cy="-18" r="2.5"/>
      <circle cx="12" cy="-14" r="2.5"/>
    </g>
    <g transform="translate(128,95)">
      <rect x="-18" y="0" width="36" height="10" rx="2"/>
      <polygon points="-18,0 -12,-14 -6,0"/>
      <polygon points="-6,0 0,-18 6,0"/>
      <polygon points="6,0 12,-14 18,0"/>
      <circle cx="-12" cy="-14" r="2.5"/>
      <circle cx="0" cy="-18" r="2.5"/>
      <circle cx="12" cy="-14" r="2.5"/>
    </g>
    <g transform="translate(100,165)">
      <rect x="-18" y="0" width="36" height="10" rx="2"/>
      <polygon points="-18,0 -12,-14 -6,0"/>
      <polygon points="-6,0 0,-18 6,0"/>
      <polygon points="6,0 12,-14 18,0"/>
      <circle cx="-12" cy="-14" r="2.5"/>
      <circle cx="0" cy="-18" r="2.5"/>
      <circle cx="12" cy="-14" r="2.5"/>
    </g>
  </g>
</svg>
